<?xml version="1.0" encoding="utf-8"?>
<!-- Generator: Adobe Illustrator 26.1.0, SVG Export Plug-In . SVG Version: 6.00 Build 0)  -->
<svg version="1.1" id="Layer_1" xmlns="http://www.w3.org/2000/svg" xmlns:xlink="http://www.w3.org/1999/xlink" x="0px" y="0px"
	 viewBox="0 0 166.6 169.4" style="enable-background:new 0 0 166.6 169.4;" xml:space="preserve">
<style type="text/css">
	.st0{fill-rule:evenodd;clip-rule:evenodd;fill:#FFFFFF;}
</style>
<path class="st0" d="M93.8,120.7c0-0.2,0-0.3,0-0.5c0-0.3-0.1-0.6-0.1-0.9c1.3-0.9,2.7-1.9,4-2.9c0.7,0.5,1.5,0.8,2.3,0.8
	c0.6,0,1.2-0.2,1.8-0.4c6,5.9,13,10.8,20.9,14.3c-10.1-1.7-19.7-5.1-28.5-10L93.8,120.7z M78.4,78.3c0.6,2,2.4,3.5,4.6,3.5
	c2.2,10.9,6.9,20.8,13.6,29.2c-0.4,0.6-0.6,1.4-0.6,2.2c0,0.5,0.1,0.9,0.2,1.3c-1.3,1-2.6,2-4,2.9c-0.5-0.3-1.1-0.5-1.8-0.5
	c-0.7,0-1.4,0.2-1.9,0.6c-9.4-6.2-17.6-14.3-24-23.8c-1.5-2.2-2.8-4.4-4.1-6.7c0.8-0.8,1.3-2,1.3-3.3c0-0.5-0.1-0.9-0.2-1.4
	C66.7,79.8,72.5,78.4,78.4,78.3z M140.8,11c-4,0-7.3,3.3-7.3,7.3s3.3,7.3,7.3,7.3s7.3-3.3,7.3-7.3S144.8,11,140.8,11z M146.7,85.3
	c-4,0-7.3,3.3-7.3,7.3c0,4,3.3,7.3,7.3,7.3s7.3-3.3,7.3-7.3C154,88.6,150.8,85.3,146.7,85.3z M124.8,104.8c-2.6,0-4.7,2.1-4.7,4.7
	c0,2.6,2.1,4.7,4.7,4.7s4.7-2.1,4.7-4.7C129.5,106.9,127.4,104.8,124.8,104.8z M146.1,38.9c-2.9,0-5.2,2.3-5.2,5.2s2.3,5.2,5.2,5.2
	s5.2-2.3,5.2-5.2C151.4,41.3,149,38.9,146.1,38.9z M159.3,58.5c-4,0-7.3,3.3-7.3,7.3s3.3,7.3,7.3,7.3c4,0,7.3-3.3,7.3-7.3
	S163.3,58.5,159.3,58.5z M44.9,100.9c1.3-0.6,2.2-1.8,2.2-3.3c0-0.8-0.3-1.6-0.7-2.2c2.2-3.1,4.7-5.8,7.5-8.1
	c0.8,0.7,1.9,1.2,3.1,1.2c0.5,0,0.9-0.1,1.4-0.2c1.3,2.3,2.7,4.6,4.2,6.8c6.7,9.8,15.1,18.1,24.7,24.4c-0.1,0.2-0.1,0.5-0.1,0.8
	c0,0.2,0,0.3,0,0.5c-5.6,3.3-11.6,6-17.9,8c-0.7-0.6-1.5-1-2.5-1c-0.8,0-1.6,0.3-2.2,0.7C58.9,119.8,51.3,111.4,44.9,100.9z
	 M36.4,82.6c1.5-0.4,2.6-1.8,2.6-3.5c0-1.3-0.7-2.4-1.7-3c0.5-2,1.1-3.9,1.7-5.9c1.9-5.8,4.5-11.4,7.6-16.7c0.2,0.1,0.5,0.2,0.8,0.2
	c0.1,0.9,0.2,1.8,0.3,2.7c1.1,8.1,3.3,16,6.5,23.6c-1.2,0.9-2,2.2-2,3.8c0,0.5,0.1,1,0.2,1.5c-3.1,2.5-5.9,5.5-8.2,8.8
	C44,94,43.7,94,43.4,94c-0.8,0-1.5,0.2-2,0.6C40,91.9,38.7,89,37.6,86C37.2,84.9,36.8,83.7,36.4,82.6z M56.7,14.9
	c-0.2-0.5-0.5-1-0.8-1.4c13.6-8.2,33.2-12.9,56.5-4.8c-0.1,0.2-0.1,0.4-0.2,0.6c-10.5,1-20.6,3.8-29.9,8.3c-0.9,0.5-1.9,0.9-2.8,1.4
	c-0.8-0.8-1.9-1.3-3.2-1.3c-1.5,0-2.8,0.7-3.6,1.8C67.5,17.6,62.2,16,56.7,14.9z M52.8,19.7c0.1,0,0.3,0,0.4,0c1.5,0,2.9-1,3.4-2.3
	c5.2,1,10.2,2.5,15.1,4.4c0,0.2,0,0.4,0,0.6c0,0.4,0.1,0.8,0.2,1.2c-6.5,4.3-12.4,9.4-17.6,15.4c-1.3,1.5-2.7,3.1-3.9,4.8
	c-0.3-0.1-0.7-0.2-1-0.3C49.4,35.4,50.5,27.4,52.8,19.7z M50,17.6c0.2,0.4,0.4,0.7,0.7,1c-2.4,8.2-3.7,16.5-3.7,24.9
	c-2.2,0.6-3.8,2.6-3.8,5c0,1.4,0.5,2.7,1.5,3.6c-3.2,5.5-5.9,11.3-7.8,17.3c-0.7,2-1.2,4-1.8,6.1c-0.2,0-0.4,0.1-0.6,0.1
	c-5.5-22.1-1.6-42.2,12-54.9C47.5,19.7,48.7,18.6,50,17.6z M89.7,123.5c0.9,7.4-0.1,14.8-2.8,21.5c-2.5,6.2-6.4,11.8-11.5,16.3
	c-0.3-0.2-0.7-0.3-1-0.4c1.6-10.4-1.9-18.6-6.1-26.2c1.2-0.6,2.1-1.8,2.1-3.3c0-0.2,0-0.3,0-0.5c6.3-2,12.3-4.8,17.9-8.1
	C88.7,123.2,89.2,123.4,89.7,123.5z M77.1,163.1c5.4-4.8,9.5-10.7,12.1-17.2c2.8-7.1,3.9-14.9,2.9-22.7c0.2-0.1,0.4-0.2,0.6-0.4
	L93,123c10.6,5.9,22.4,9.7,34.7,11c0.2,1.1,0.6,2,1.3,2.7c-11.9,16.1-31.4,27.1-51.6,27.4C77.4,163.8,77.3,163.4,77.1,163.1z
	 M91.9,37.3c0.6,0.2,1.2,0.3,1.9,0.3c1.2,0,2.4-0.4,3.2-1.1c10.9,8.9,19.7,20.3,25.7,33.4c-1.6,1-2.7,2.8-2.7,4.9
	c0,2.1,1.1,3.9,2.8,4.9c-4.8,11.6-12,21.7-20.8,29.9c-0.6-0.3-1.2-0.5-1.9-0.5c-0.5,0-1.1,0.1-1.5,0.3c-6.5-8.1-11-17.8-13.1-28.3
	c1.5-0.8,2.5-2.4,2.5-4.2c0-2.3-1.6-4.2-3.7-4.7c-0.7-11.5,1.7-22.8,6.6-32.9C91.2,38.6,91.5,37.9,91.9,37.3z M93.8,27.1
	c-1.4,0-2.6,0.5-3.6,1.4c-3.1-2-6.2-3.8-9.5-5.4c0-0.2,0.1-0.5,0.1-0.8c0-0.4-0.1-0.8-0.2-1.2c0.9-0.5,1.7-0.9,2.6-1.3
	c8.9-4.3,18.5-7,28.4-8c-6.3,4.3-11.8,9.6-16.3,15.5C94.9,27.2,94.3,27.1,93.8,27.1z M114.6,30.5H98.7c-0.3-0.7-0.7-1.3-1.2-1.9
	c4.4-5.8,9.8-11,16-15.1c0.8,0.8,1.9,1.3,3.2,1.3c2.5,0,4.6-2,4.6-4.6s-2-4.6-4.6-4.6c-1.5,0-2.8,0.7-3.6,1.8
	c-10.4-5-43.6-17.5-72.3,8.5c-9.8,8.9-16.8,22.4-20.9,40.3c-0.4,17.7-10.1,22.2-15.6,27c-6.2,5.4-5.8,9,3.1,12.8
	c5.5,2.6,6.3,5.3,2.3,8.3c-2.3,1-2.8,2.5-1.6,4.5c4,2.4,4.7,4,2.2,4.8c-1.3,0.4-2.1,2.7,0.4,4c6,3,2,7.5,1.4,12.6
	c-1.2,9.9,6.7,14.3,23.9,13.3c14.2-0.8,30.6,1.4,35.1,18.1c-1.2,0.8-1.9,2.1-1.9,3.6c0,2.4,1.9,4.4,4.3,4.4c1.9,0,3.5-1.2,4.1-2.9
	c10.5-0.4,20.6-3.1,29.7-7.8c9.3-4.9,17.6-11.8,24-20.5c0.6,0.2,1.2,0.4,1.9,0.4c2.9,0,5.2-2.3,5.2-5.2s-2.3-5.2-5.2-5.2
	c-1.9,0-3.6,1.1-4.5,2.6c-9.5-3.3-18-8.7-24.9-15.6c0.3-0.6,0.5-1.2,0.5-1.9c0-0.6-0.2-1.2-0.4-1.8c9.1-8.5,16.5-18.9,21.4-30.8
	c0.2,0,0.5,0.1,0.7,0.1c3.2,0,5.8-2.6,5.8-5.8s-2.6-5.8-5.8-5.8c-0.3,0-0.5,0-0.8,0.1c-6.1-13.6-15.2-25.3-26.4-34.5
	c0.3-0.5,0.4-1.2,0.5-1.8h15.5c0.5,2.4,2.6,4.2,5.1,4.2c2.9,0,5.2-2.3,5.2-5.2s-2.3-5.2-5.2-5.2C117.2,26.5,115.2,28.2,114.6,30.5z
	 M78.3,75.9C72,76,65.8,77.6,60.2,80.3c-0.8-0.8-2-1.3-3.2-1.3c-0.2,0-0.3,0-0.5,0c-3.2-7.4-5.3-15.2-6.4-23
	c-0.1-0.8-0.2-1.6-0.3-2.5c2.2-0.6,3.8-2.6,3.8-5c0-1.3-0.5-2.6-1.3-3.5c1.2-1.5,2.4-3.1,3.7-4.5c5-5.8,10.8-10.7,17.1-14.9
	c0.8,0.8,1.9,1.3,3.2,1.3c1.4,0,2.6-0.6,3.5-1.6c3.2,1.6,6.2,3.3,9.2,5.2c-0.2,0.6-0.3,1.2-0.3,1.9c0,1.4,0.5,2.6,1.4,3.5
	c-0.4,0.8-0.8,1.6-1.2,2.4c-5.1,10.4-7.6,22-6.9,34C80.1,72.7,78.7,74.1,78.3,75.9z"/>
</svg>
