<?xml version="1.0" encoding="utf-8"?>
<!-- Generator: Adobe Illustrator 26.1.0, SVG Export Plug-In . SVG Version: 6.00 Build 0)  -->
<svg version="1.1" id="Layer_1" xmlns="http://www.w3.org/2000/svg" xmlns:xlink="http://www.w3.org/1999/xlink" x="0px" y="0px"
	 viewBox="0 0 616.67 169.41" style="enable-background:new 0 0 616.67 169.41;" xml:space="preserve">
<style type="text/css">
	.st0{fill-rule:evenodd;clip-rule:evenodd;fill:#FFFFFF;}
	.st1{fill:#FFFFFF;}
</style>
<path class="st0" d="M93.78,120.74c0.02-0.16,0.04-0.32,0.04-0.48c0-0.32-0.05-0.63-0.13-0.92c1.35-0.94,2.68-1.92,3.98-2.93
	c0.65,0.47,1.46,0.75,2.32,0.75c0.64,0,1.25-0.15,1.78-0.42c5.96,5.95,13.03,10.82,20.92,14.26c-10.08-1.68-19.72-5.1-28.51-10.03
	L93.78,120.74z M78.41,78.28c0.58,2.01,2.44,3.49,4.64,3.49c2.17,10.87,6.91,20.84,13.6,29.22c-0.4,0.62-0.64,1.37-0.64,2.17
	c0,0.47,0.08,0.92,0.23,1.33c-1.3,1.01-2.62,1.99-3.97,2.92c-0.52-0.33-1.14-0.53-1.81-0.53c-0.72,0-1.38,0.22-1.93,0.61
	c-9.37-6.22-17.57-14.27-24.05-23.81c-1.47-2.17-2.84-4.39-4.1-6.66c0.82-0.85,1.32-2,1.32-3.28c0-0.48-0.07-0.95-0.21-1.39
	C66.69,79.81,72.46,78.39,78.41,78.28z M140.81,11.04c-4.03,0-7.3,3.27-7.3,7.3c0,4.03,3.27,7.3,7.3,7.3s7.3-3.27,7.3-7.3
	C148.11,14.31,144.84,11.04,140.81,11.04z M146.72,85.3c-4.03,0-7.3,3.27-7.3,7.3c0,4.03,3.27,7.3,7.3,7.3c4.03,0,7.3-3.27,7.3-7.3
	C154.02,88.56,150.75,85.3,146.72,85.3z M124.79,104.76c-2.62,0-4.74,2.12-4.74,4.74c0,2.62,2.12,4.74,4.74,4.74
	s4.74-2.12,4.74-4.74C129.53,106.88,127.4,104.76,124.79,104.76z M146.15,38.93c-2.89,0-5.23,2.34-5.23,5.23
	c0,2.89,2.34,5.23,5.23,5.23c2.89,0,5.23-2.34,5.23-5.23C151.38,41.27,149.04,38.93,146.15,38.93z M159.29,58.48
	c-4.04,0-7.32,3.28-7.32,7.32c0,4.04,3.28,7.32,7.32,7.32c4.04,0,7.32-3.28,7.32-7.32C166.61,61.76,163.33,58.48,159.29,58.48z
	 M44.87,100.9c1.27-0.56,2.15-1.83,2.15-3.31c0-0.82-0.28-1.58-0.74-2.19c2.15-3.09,4.7-5.82,7.55-8.14c0.83,0.74,1.93,1.2,3.14,1.2
	c0.47,0,0.93-0.07,1.36-0.2c1.28,2.3,2.67,4.56,4.17,6.76c6.66,9.8,15.08,18.06,24.68,24.45c-0.06,0.25-0.09,0.51-0.09,0.78
	c0,0.16,0.01,0.31,0.03,0.47c-5.61,3.33-11.6,6.03-17.87,8.03c-0.65-0.61-1.52-0.99-2.48-0.99c-0.81,0-1.56,0.27-2.16,0.72
	C58.89,119.81,51.26,111.42,44.87,100.9z M36.39,82.57c1.5-0.44,2.59-1.83,2.59-3.47c0-1.27-0.66-2.4-1.66-3.04
	c0.5-1.98,1.06-3.94,1.7-5.88c1.91-5.82,4.45-11.43,7.58-16.74c0.25,0.09,0.52,0.16,0.79,0.22c0.09,0.89,0.2,1.78,0.32,2.67
	c1.09,8.09,3.27,16.02,6.52,23.59c-1.19,0.86-1.96,2.25-1.96,3.83c0,0.53,0.09,1.04,0.25,1.52c-3.11,2.5-5.88,5.46-8.21,8.82
	c-0.28-0.07-0.58-0.11-0.89-0.11c-0.76,0-1.46,0.23-2.04,0.63c-1.38-2.71-2.65-5.57-3.77-8.6C37.17,84.86,36.77,83.71,36.39,82.57z
	 M56.67,14.95c-0.17-0.52-0.46-0.98-0.83-1.37c13.61-8.24,33.25-12.85,56.47-4.8c-0.07,0.2-0.12,0.4-0.16,0.61
	c-10.48,0.96-20.61,3.79-29.95,8.27c-0.94,0.45-1.88,0.92-2.8,1.41c-0.82-0.8-1.95-1.3-3.19-1.3c-1.47,0-2.77,0.69-3.61,1.77
	C67.49,17.57,62.16,16.02,56.67,14.95z M52.81,19.68c0.14,0.02,0.28,0.03,0.43,0.03c1.54,0,2.86-0.97,3.38-2.33
	c5.19,1.04,10.23,2.51,15.09,4.38c-0.03,0.19-0.04,0.38-0.04,0.58c0,0.42,0.06,0.83,0.16,1.22c-6.48,4.28-12.42,9.43-17.64,15.37
	c-1.35,1.54-2.65,3.12-3.88,4.75c-0.32-0.13-0.66-0.23-1.02-0.29C49.38,35.42,50.54,27.45,52.81,19.68z M49.97,17.64
	c0.17,0.36,0.4,0.68,0.67,0.97c-2.43,8.16-3.66,16.55-3.74,24.9c-2.17,0.64-3.76,2.64-3.76,5.02c0,1.4,0.55,2.68,1.45,3.62
	c-3.24,5.48-5.87,11.28-7.85,17.3c-0.66,2-1.24,4.02-1.76,6.06c-0.21,0.02-0.41,0.06-0.61,0.12c-5.48-22.08-1.64-42.2,11.97-54.89
	C47.48,19.68,48.69,18.65,49.97,17.64z M89.7,123.53c0.93,7.39-0.08,14.77-2.76,21.47c-2.47,6.18-6.37,11.79-11.48,16.32
	c-0.32-0.19-0.66-0.34-1.02-0.44c1.58-10.35-1.87-18.62-6.12-26.24c1.22-0.58,2.07-1.83,2.07-3.27c0-0.16-0.01-0.32-0.03-0.47
	c6.28-2.03,12.29-4.75,17.92-8.09C88.68,123.16,89.16,123.41,89.7,123.53z M77.09,163.07c5.37-4.77,9.46-10.68,12.06-17.18
	c2.83-7.08,3.9-14.88,2.91-22.69c0.2-0.11,0.38-0.24,0.56-0.38l0.4,0.22c10.59,5.94,22.38,9.74,34.7,11.03
	c0.16,1.05,0.64,2,1.32,2.74c-11.92,16.15-31.4,27.05-51.55,27.38C77.41,163.8,77.27,163.42,77.09,163.07z M91.9,37.26
	c0.58,0.22,1.21,0.34,1.87,0.34c1.23,0,2.36-0.42,3.25-1.13c10.87,8.89,19.71,20.27,25.66,33.4c-1.64,1.02-2.73,2.84-2.73,4.91
	c0,2.09,1.11,3.93,2.78,4.94c-4.82,11.57-12,21.7-20.84,29.93c-0.57-0.31-1.22-0.49-1.91-0.49c-0.54,0-1.05,0.11-1.52,0.3
	c-6.46-8.11-11.03-17.76-13.11-28.28c1.51-0.82,2.53-2.42,2.53-4.25c0-2.27-1.57-4.17-3.67-4.69c-0.68-11.54,1.7-22.85,6.62-32.9
	C91.18,38.64,91.53,37.95,91.9,37.26z M93.77,27.13c-1.38,0-2.64,0.53-3.57,1.41c-3.05-1.98-6.21-3.79-9.48-5.42
	c0.04-0.25,0.07-0.52,0.07-0.78c0-0.42-0.06-0.82-0.16-1.2c0.87-0.45,1.74-0.89,2.62-1.31c8.88-4.26,18.5-6.98,28.44-7.98
	c-6.35,4.3-11.83,9.58-16.3,15.54C94.88,27.21,94.33,27.13,93.77,27.13z M114.59,30.47H98.66c-0.27-0.7-0.69-1.34-1.23-1.85
	c4.4-5.82,9.79-10.95,16.05-15.12c0.82,0.79,1.93,1.28,3.16,1.28c2.52,0,4.56-2.04,4.56-4.56c0-2.52-2.04-4.56-4.56-4.56
	c-1.46,0-2.75,0.68-3.59,1.75c-10.37-4.96-43.61-17.52-72.35,8.54c-9.83,8.91-16.78,22.36-20.88,40.26
	C19.4,73.86,9.76,78.37,4.19,83.2c-6.2,5.37-5.79,9.01,3.06,12.76c5.52,2.56,6.28,5.31,2.28,8.27c-2.28,0.98-2.82,2.47-1.62,4.49
	c3.97,2.42,4.7,4.01,2.18,4.78c-1.27,0.4-2.08,2.74,0.37,3.98c5.96,3.04,1.97,7.49,1.35,12.55c-1.22,9.88,6.73,14.32,23.86,13.31
	c14.23-0.84,30.59,1.38,35.12,18.11c-1.16,0.78-1.93,2.11-1.93,3.61c0,2.4,1.95,4.35,4.35,4.35c1.9,0,3.51-1.21,4.1-2.91
	c10.5-0.35,20.64-3.07,29.73-7.8c9.33-4.85,17.57-11.83,23.96-20.53c0.58,0.22,1.22,0.35,1.88,0.35c2.89,0,5.23-2.34,5.23-5.23
	c0-2.89-2.34-5.23-5.23-5.23c-1.93,0-3.62,1.05-4.52,2.6c-9.51-3.31-17.97-8.68-24.88-15.57c0.31-0.57,0.49-1.22,0.49-1.92
	c0-0.64-0.15-1.25-0.42-1.79c9.1-8.48,16.48-18.92,21.44-30.85c0.24,0.03,0.49,0.05,0.74,0.05c3.19,0,5.78-2.59,5.78-5.78
	c0-3.19-2.59-5.78-5.78-5.78c-0.27,0-0.54,0.02-0.8,0.06c-6.1-13.56-15.22-25.29-26.42-34.45c0.26-0.55,0.43-1.16,0.48-1.8h15.54
	c0.49,2.38,2.6,4.17,5.12,4.17c2.89,0,5.23-2.34,5.23-5.23c0-2.89-2.34-5.23-5.23-5.23C117.21,26.52,115.16,28.2,114.59,30.47z
	 M78.33,75.9c-6.37,0.12-12.55,1.66-18.12,4.44c-0.84-0.8-1.99-1.29-3.24-1.29c-0.18,0-0.35,0.01-0.52,0.03
	c-3.18-7.39-5.32-15.15-6.38-23.05c-0.11-0.82-0.21-1.63-0.29-2.45c2.21-0.61,3.84-2.64,3.84-5.04c0-1.35-0.51-2.57-1.34-3.5
	c1.18-1.55,2.42-3.07,3.72-4.54c5.05-5.75,10.79-10.74,17.06-14.89c0.82,0.8,1.94,1.29,3.18,1.29c1.39,0,2.64-0.63,3.48-1.61
	c3.16,1.57,6.22,3.33,9.16,5.24c-0.22,0.57-0.34,1.2-0.34,1.85c0,1.37,0.53,2.62,1.39,3.55c-0.42,0.78-0.83,1.58-1.22,2.38
	c-5.09,10.38-7.55,22.05-6.87,33.97C80.08,72.72,78.72,74.13,78.33,75.9z"/>
<g>
	<path class="st1" d="M212.81,17.63l-23.26,58.35h10.09l4.83-12.34h26.84l4.83,12.34h10.17l-23.34-58.35H212.81z M207.81,55.14
		l10.09-25.93l10.17,25.93H207.81z"/>
	<path class="st1" d="M286.46,65.18c-2.97,2.08-6.29,3.13-9.96,3.13c-3.72,0-7.06-0.92-10-2.75c-2.94-1.83-5.24-4.38-6.88-7.63
		c-1.64-3.25-2.46-6.96-2.46-11.13c0-4.17,0.81-7.88,2.42-11.13s3.88-5.78,6.79-7.59c2.92-1.81,6.21-2.71,9.88-2.71
		c3.55,0,6.85,0.99,9.88,2.96c3.03,1.97,5.35,4.57,6.96,7.79l8.67-3.5c-2.17-4.78-5.56-8.64-10.17-11.59
		c-4.61-2.94-9.73-4.42-15.34-4.42c-5.56,0-10.52,1.28-14.88,3.83c-4.36,2.56-7.77,6.13-10.21,10.71
		c-2.45,4.59-3.67,9.79-3.67,15.63s1.22,11.04,3.67,15.63c2.45,4.59,5.86,8.16,10.25,10.71c4.39,2.56,9.39,3.83,15.01,3.83
		c5.61,0,10.74-1.53,15.38-4.59c4.64-3.06,8.05-7.06,10.21-12l-8.75-3.58C291.7,60.3,289.43,63.1,286.46,65.18z"/>
	<path class="st1" d="M327.59,17.63l-23.26,58.35h10.09l4.83-12.34h26.84l4.83,12.34h10.17l-23.34-58.35H327.59z M322.59,55.14
		l10.09-25.93l10.17,25.93H322.59z"/>
	<path class="st1" d="M401.36,21.34c-4.45-2.47-9.5-3.71-15.17-3.71h-18.34v58.35h18.34c5.67,0,10.72-1.24,15.17-3.71
		c4.44-2.47,7.92-5.93,10.42-10.38c2.5-4.44,3.75-9.47,3.75-15.09c0-5.67-1.25-10.71-3.75-15.13
		C409.28,27.25,405.81,23.81,401.36,21.34z M403.28,57.05c-1.72,3.11-4.08,5.56-7.09,7.33c-3,1.78-6.33,2.67-10,2.67h-8.75V26.54
		h8.75c3.67,0,7,0.89,10,2.67c3,1.78,5.36,4.22,7.09,7.33c1.72,3.11,2.58,6.53,2.58,10.25C405.87,50.52,405,53.94,403.28,57.05z"/>
	<polygon class="st1" points="434.54,50.55 457.8,50.55 457.8,41.97 434.54,41.97 434.54,26.38 460.88,26.38 460.88,17.63 
		424.96,17.63 424.96,75.98 461.13,75.98 461.13,67.22 434.54,67.22 	"/>
	<polygon class="st1" points="501.89,44.8 483.55,17.63 473.3,17.63 473.3,75.98 482.89,75.98 482.89,32.8 501.89,60.89 
		520.98,32.71 520.98,75.98 530.48,75.98 530.48,17.63 520.23,17.63 	"/>
	<rect x="543.48" y="17.63" class="st1" width="9.59" height="58.35"/>
	<path class="st1" d="M593.33,17.63h-10.17l-23.26,58.35h10.09l4.83-12.34h26.84l4.83,12.34h10.17L593.33,17.63z M578.16,55.14
		l10.09-25.93l10.17,25.93H578.16z"/>
</g>
<g>
	<path class="st1" d="M291.39,108.46c-1.06-1.57-2.41-2.79-4.02-3.64c-1.62-0.85-3.45-1.28-5.49-1.28c-2.9,0-5.44,0.68-7.63,2.04
		c-2.19,1.36-3.87,3.3-5.05,5.81c-1.17,2.51-1.75,5.47-1.75,8.88c0,3.36,0.58,6.31,1.75,8.84c1.17,2.53,2.85,4.48,5.05,5.84
		c2.19,1.36,4.74,2.04,7.63,2.04c4.21,0,7.43-1.7,9.64-5.11l0.26,4.34h8.24V90.26h-8.62V108.46z M291.39,121.55
		c-0.21,2.26-1,4.08-2.36,5.46c-1.36,1.38-3.02,2.08-4.98,2.08c-2.21,0-4.04-0.83-5.49-2.49c-1.45-1.66-2.17-3.77-2.17-6.32
		c0-2.55,0.71-4.65,2.14-6.29c1.42-1.64,3.25-2.46,5.46-2.46c2,0,3.68,0.68,5.04,2.04c1.36,1.36,2.15,3.17,2.36,5.43V121.55z"/>
	<path class="st1" d="M335.65,112.38c-1.4-2.87-3.29-5.07-5.65-6.58c-2.36-1.51-4.99-2.27-7.89-2.27c-3.19,0-6.06,0.71-8.59,2.14
		c-2.53,1.43-4.51,3.41-5.94,5.94c-1.43,2.53-2.14,5.42-2.14,8.65c0,3.23,0.69,6.12,2.08,8.65c1.38,2.53,3.31,4.51,5.78,5.94
		c2.47,1.43,5.28,2.14,8.43,2.14c3.66,0,6.78-0.75,9.35-2.24c2.58-1.49,4.54-3.62,5.91-6.39l-7.66-3c-1.36,2.68-3.62,4.02-6.77,4.02
		c-2.13,0-3.97-0.63-5.52-1.88c-1.55-1.26-2.42-2.9-2.59-4.95h23.31C337.75,118.65,337.05,115.26,335.65,112.38z M314.89,116.25
		c0.21-1.79,1.03-3.15,2.46-4.09c1.42-0.94,2.93-1.4,4.5-1.4s3.03,0.46,4.37,1.37c1.34,0.92,2.1,2.29,2.27,4.12H314.89z"/>
	<polygon class="st1" points="391.71,124.49 385.26,104.31 376.77,104.31 370.19,124.93 363.68,104.31 354.87,104.31 365.72,136.23 
		374.21,136.23 380.98,114.59 387.75,136.23 396.24,136.23 407.1,104.31 398.35,104.31 	"/>
	<path class="st1" d="M438.77,112.38c-1.4-2.87-3.29-5.07-5.65-6.58c-2.36-1.51-4.99-2.27-7.89-2.27c-3.19,0-6.06,0.71-8.59,2.14
		c-2.53,1.43-4.51,3.41-5.94,5.94c-1.43,2.53-2.14,5.42-2.14,8.65c0,3.23,0.69,6.12,2.08,8.65c1.38,2.53,3.31,4.51,5.78,5.94
		c2.47,1.43,5.28,2.14,8.43,2.14c3.66,0,6.78-0.75,9.35-2.24c2.58-1.49,4.54-3.62,5.91-6.39l-7.66-3c-1.36,2.68-3.62,4.02-6.77,4.02
		c-2.13,0-3.97-0.63-5.52-1.88c-1.55-1.26-2.42-2.9-2.59-4.95h23.31C440.88,118.65,440.18,115.26,438.77,112.38z M418.02,116.25
		c0.21-1.79,1.03-3.15,2.46-4.09c1.42-0.94,2.93-1.4,4.5-1.4s3.03,0.46,4.37,1.37c1.34,0.92,2.1,2.29,2.27,4.12H418.02z"/>
	<path class="st1" d="M474.21,112.38c-1.4-2.87-3.29-5.07-5.65-6.58c-2.36-1.51-4.99-2.27-7.89-2.27c-3.19,0-6.06,0.71-8.59,2.14
		c-2.53,1.43-4.51,3.41-5.94,5.94c-1.43,2.53-2.14,5.42-2.14,8.65c0,3.23,0.69,6.12,2.08,8.65c1.38,2.53,3.31,4.51,5.78,5.94
		c2.47,1.43,5.28,2.14,8.43,2.14c3.66,0,6.78-0.75,9.35-2.24c2.58-1.49,4.54-3.62,5.91-6.39l-7.66-3c-1.36,2.68-3.62,4.02-6.77,4.02
		c-2.13,0-3.97-0.63-5.52-1.88c-1.55-1.26-2.42-2.9-2.59-4.95h23.31C476.32,118.65,475.62,115.26,474.21,112.38z M453.46,116.25
		c0.21-1.79,1.03-3.15,2.46-4.09c1.42-0.94,2.93-1.4,4.5-1.4c1.57,0,3.03,0.46,4.37,1.37c1.34,0.92,2.1,2.29,2.27,4.12H453.46z"/>
	<polygon class="st1" points="510.8,104.31 500.52,104.31 489.79,116.18 489.79,90.26 481.17,90.26 481.17,136.23 489.79,136.23 
		489.79,127.8 493.24,123.97 501.61,136.23 511.69,136.23 498.73,117.84 	"/>
	<path class="st1" d="M542.47,112.38c-1.4-2.87-3.29-5.07-5.65-6.58c-2.36-1.51-4.99-2.27-7.89-2.27c-3.19,0-6.06,0.71-8.59,2.14
		c-2.53,1.43-4.51,3.41-5.94,5.94c-1.43,2.53-2.14,5.42-2.14,8.65c0,3.23,0.69,6.12,2.08,8.65c1.38,2.53,3.31,4.51,5.78,5.94
		c2.47,1.43,5.28,2.14,8.43,2.14c3.66,0,6.78-0.75,9.35-2.24c2.58-1.49,4.54-3.62,5.91-6.39l-7.66-3c-1.36,2.68-3.62,4.02-6.77,4.02
		c-2.13,0-3.97-0.63-5.52-1.88c-1.55-1.26-2.42-2.9-2.59-4.95h23.31C544.58,118.65,543.88,115.26,542.47,112.38z M521.72,116.25
		c0.21-1.79,1.03-3.15,2.46-4.09c1.43-0.94,2.93-1.4,4.5-1.4c1.57,0,3.03,0.46,4.37,1.37c1.34,0.92,2.1,2.29,2.27,4.12H521.72z"/>
	<path class="st1" d="M579.13,118.16c0.04-9.75-3.92-14.62-11.88-14.62c-1.96,0-3.73,0.44-5.33,1.31c-1.6,0.87-2.93,2.12-3.99,3.74
		l-0.32-4.28h-8.17v31.93h8.62v-16.79c0-2.51,0.54-4.44,1.63-5.78c1.09-1.34,2.67-2.01,4.76-2.01c1.96,0,3.46,0.61,4.5,1.82
		c1.04,1.21,1.56,3.35,1.56,6.42h0.06v16.35h8.62v-16.35h-0.06V118.16z"/>
	<path class="st1" d="M608.05,90.26v18.2c-1.06-1.57-2.41-2.79-4.02-3.64c-1.62-0.85-3.45-1.28-5.49-1.28
		c-2.9,0-5.44,0.68-7.63,2.04c-2.19,1.36-3.87,3.3-5.05,5.81c-1.17,2.51-1.76,5.47-1.76,8.88c0,3.36,0.59,6.31,1.76,8.84
		c1.17,2.53,2.85,4.48,5.05,5.84c2.19,1.36,4.74,2.04,7.63,2.04c4.21,0,7.43-1.7,9.64-5.11l0.26,4.34h8.24V90.26H608.05z
		 M608.05,121.55c-0.21,2.26-1,4.08-2.36,5.46c-1.36,1.38-3.02,2.08-4.98,2.08c-2.21,0-4.05-0.83-5.49-2.49
		c-1.45-1.66-2.17-3.77-2.17-6.32c0-2.55,0.71-4.65,2.14-6.29c1.42-1.64,3.24-2.46,5.46-2.46c2,0,3.68,0.68,5.05,2.04
		c1.36,1.36,2.15,3.17,2.36,5.43V121.55z"/>
</g>
<rect x="214.14" y="90.98" transform="matrix(6.123234e-17 -1 1 6.123234e-17 98.5717 339.177)" class="st1" width="9.46" height="58.64"/>
</svg>
